<svg width="252" height="252" xmlns="http://www.w3.org/2000/svg" data-name="Layer 1">
 <defs>
  <linearGradient y2="0.97486" x2="0.9654" y1="0.10736" x1="-0.01349" id="linear-gradient">
   <stop stop-color="#ef599f" offset="0"/>
   <stop stop-color="#f59496" offset="1"/>
  </linearGradient>
 </defs>
 <g>
  <title>Layer 1</title>
  <path id="svg_1" fill-rule="evenodd" stroke-width="7px" stroke-linejoin="round" stroke-linecap="round" stroke="#995b99" fill="none" d="m559.5,324.5" class="cls-1"/>
  <path id="svg_2" fill="url(#linear-gradient)" d="m95.4,36l-67.8,0a22.76,22.76 0 0 0 -22.6,22.93l0,137.55a22.83,22.83 0 0 0 22.6,22.92l180.8,0a22.83,22.83 0 0 0 22.6,-22.92l0,-114.63a22.76,22.76 0 0 0 -22.6,-22.92l-90.4,0l-22.6,-22.93z" class="cls-2"/>
  <ellipse id="svg_3" fill="#b55c85" ry="9.37" rx="54.04" cy="76.23" cx="197.96" class="cls-3"/>
  <path id="svg_4" fill="#f7afd1" fill-rule="evenodd" d="m251.47,77.77l-24,120.23l-4.65,0l23.52,-117.91a17,17 0 0 0 5.13,-2.32z" class="cls-4"/>
  <path id="svg_5" fill="#f59bc5" fill-rule="evenodd" d="m246.36,80.09l-23.52,117.91l-54.59,0l-23.37,-117.19l-0.64,-3.22c4.85,4.17 27.06,7.31 53.72,7.31a271.15,271.15 0 0 0 33.67,-1.91l0.07,0a91.6,91.6 0 0 0 14.66,-2.9z" class="cls-5"/>
  <line id="svg_6" opacity="0.72" stroke-width="5px" stroke-linejoin="round" stroke-linecap="round" stroke="#995b99" fill="none" y2="180.85" x2="187.31" y1="112.44" x1="169.53" class="cls-6"/>
  <line id="svg_7" opacity="0.72" stroke-width="5px" stroke-linejoin="round" stroke-linecap="round" stroke="#995b99" fill="none" y2="180.85" x2="216.04" y1="109.98" x1="228.35" class="cls-6"/>
  <path id="svg_8" stroke-width="5px" fill-rule="evenodd" stroke-linejoin="round" stroke-linecap="round" stroke="#995b99" fill="none" d="m140.91,110" class="cls-7"/>
  <line id="svg_9" opacity="0.72" stroke-width="5px" stroke-linejoin="round" stroke-linecap="round" stroke="#995b99" fill="none" y2="180.85" x2="200.31" y1="109.98" x1="200.31" class="cls-6"/>
 </g>
</svg>